<svg width="55" height="55" viewBox="0 0 55 55" fill="none" xmlns="http://www.w3.org/2000/svg">
<path d="M4.58203 22.9193C4.58203 14.2774 4.58203 9.95531 7.26786 7.27177C9.9537 4.58823 14.2735 4.58594 22.9154 4.58594H32.082C40.7239 4.58594 45.046 4.58594 47.7295 7.27177C50.4131 9.9576 50.4154 14.2774 50.4154 22.9193V25.2109C50.4154 31.6918 50.4154 34.9345 48.401 36.9466C46.3889 38.9609 43.1462 38.9609 36.6654 38.9609H18.332C11.8512 38.9609 8.60849 38.9609 6.59641 36.9466C4.58203 34.9345 4.58203 31.6918 4.58203 25.2109V22.9193Z" stroke-width="3" stroke="#10497D"/>
<path d="M36.6654 50.4219H27.4987M27.4987 50.4219H18.332M27.4987 50.4219V38.9635M50.4154 29.7969H4.58203" stroke-width="3" stroke-linecap="round" stroke="#10497D"/>
</svg>
