<svg width="67" height="67" viewBox="0 0 67 67" fill="none" xmlns="http://www.w3.org/2000/svg">
<path d="M33.4997 5.58594C34.5475 5.58594 35.5804 5.6427 36.5984 5.75623C36.9628 5.79656 37.3157 5.90826 37.637 6.08497C37.9582 6.26168 38.2415 6.49993 38.4706 6.78612C38.6998 7.07231 38.8703 7.40084 38.9725 7.75294C39.0747 8.10504 39.1066 8.47382 39.0663 8.83823C39.0259 9.20264 38.9142 9.55553 38.7375 9.87677C38.5608 10.198 38.3226 10.4813 38.0364 10.7104C37.7502 10.9396 37.4216 11.1102 37.0695 11.2123C36.7174 11.3145 36.3487 11.3464 35.9843 11.3061C31.3837 10.7914 26.7369 11.7191 22.6866 13.9607C18.6364 16.2024 15.3827 19.6473 13.3759 23.8189C11.369 27.9905 10.708 32.6826 11.4843 37.2463C12.2606 41.81 14.4359 46.0196 17.7093 49.293C20.9826 52.5664 25.1923 54.7417 29.756 55.518C34.3197 56.2943 39.0118 55.6333 43.1834 53.6264C47.355 51.6195 50.7999 48.3659 53.0415 44.3156C55.2832 40.2653 56.2109 35.6186 55.6962 31.018C55.6559 30.6536 55.6877 30.2848 55.7899 29.9327C55.8921 29.5806 56.0627 29.2521 56.2918 28.9659C56.7546 28.3879 57.4281 28.0175 58.164 27.936C58.9 27.8546 59.6382 28.0688 60.2161 28.5316C60.5023 28.7608 60.7406 29.0441 60.9173 29.3653C61.094 29.6866 61.2057 30.0394 61.246 30.4039C61.3577 31.4219 61.4145 32.4548 61.4163 33.5026C61.4163 48.921 48.918 61.4193 33.4997 61.4193C18.0813 61.4193 5.58301 48.921 5.58301 33.5026C5.58301 18.0842 18.0813 5.58594 33.4997 5.58594ZM33.4103 21.9926C33.5943 22.7092 33.4863 23.4697 33.1099 24.1067C32.7335 24.7438 32.1196 25.2053 31.4031 25.39C29.4346 25.9057 27.721 27.1199 26.582 28.8062C25.443 30.4925 24.9565 32.5356 25.2132 34.5542C25.4699 36.5729 26.4522 38.4292 27.977 39.7767C29.5018 41.1243 31.4648 41.871 33.4997 41.8776C35.357 41.8784 37.1619 41.2618 38.6304 40.1247C40.099 38.9876 41.1479 37.3947 41.6123 35.5964C41.8101 34.8938 42.2753 34.2968 42.908 33.933C43.5407 33.5693 44.2908 33.4678 44.9974 33.6503C45.7041 33.8328 46.3112 34.2848 46.6887 34.9094C47.0661 35.5341 47.184 36.2817 47.0169 36.9922C46.1605 40.275 44.1383 43.1337 41.3279 45.0343C38.5176 46.935 35.1115 47.7474 31.7458 47.32C28.3802 46.8925 25.2853 45.2544 23.0393 42.7116C20.7933 40.1688 19.5499 36.8953 19.5413 33.5026C19.5409 30.4077 20.569 27.4005 22.464 24.9536C24.359 22.5067 27.0135 20.7591 30.0101 19.9854C30.3652 19.8938 30.7348 19.8732 31.0978 19.9245C31.4609 19.9759 31.8102 20.0982 32.126 20.2846C32.4417 20.471 32.7177 20.7178 32.9381 21.0108C33.1584 21.3039 33.3189 21.6375 33.4103 21.9926ZM51.6567 5.94048C52.1662 6.15175 52.6018 6.50925 52.9083 6.96784C53.2149 7.42643 53.3787 7.96557 53.3791 8.51719V13.6259H58.4851C59.0371 13.6261 59.5768 13.7898 60.0357 14.0966C60.4947 14.4034 60.8524 14.8393 61.0637 15.3494C61.2749 15.8594 61.3302 16.4206 61.2226 16.9621C61.1149 17.5035 60.8491 18.0009 60.4588 18.3913L50.5847 28.2543C50.0613 28.7778 49.3513 29.0721 48.611 29.0722H41.8747L36.7715 34.1782C36.2477 34.702 35.5372 34.9963 34.7964 34.9963C34.0556 34.9963 33.3451 34.702 32.8213 34.1782C32.2975 33.6544 32.0032 32.9439 32.0032 32.2031C32.0032 31.4623 32.2975 30.7518 32.8213 30.228L37.9273 25.1276V18.3885C37.9274 17.6482 38.2216 16.9382 38.7452 16.4148L48.6138 6.54348C49.0042 6.15283 49.5017 5.88676 50.0433 5.77893C50.585 5.6711 51.1464 5.72634 51.6567 5.93769M47.7958 15.2535L43.5106 19.5443V23.4917H47.458L51.746 19.2065H50.5875C49.8471 19.2065 49.137 18.9124 48.6135 18.3888C48.0899 17.8653 47.7958 17.1552 47.7958 16.4148V15.2535Z" fill="#10497D"/>
</svg>
