<svg width="55" height="55" viewBox="0 0 55 55" fill="none" xmlns="http://www.w3.org/2000/svg">
<path d="M11.2848 21.0277C11.0269 20.7699 10.6772 20.625 10.3125 20.625H7.5625C7.19783 20.625 6.84809 20.7699 6.59023 21.0277C6.33237 21.2856 6.1875 21.6353 6.1875 22V24.75C6.1875 25.1147 6.33237 25.4644 6.59023 25.7223C6.84809 25.9801 7.19783 26.125 7.5625 26.125H10.3125C10.6772 26.125 11.0269 25.9801 11.2848 25.7223C11.5426 25.4644 11.6875 25.1147 11.6875 24.75V22C11.6875 21.6353 11.5426 21.2856 11.2848 21.0277ZM11.2848 21.0277L18.9654 13.3471M18.9654 13.3471C19.2232 13.605 19.5728 13.75 19.9375 13.75H22.6875C23.0522 13.75 23.4019 13.6051 23.6598 13.3473C23.9176 13.0894 24.0625 12.7397 24.0625 12.375V9.625C24.0625 9.26033 23.9176 8.91059 23.6598 8.65273C23.4019 8.39487 23.0522 8.25 22.6875 8.25H19.9375C19.5728 8.25 19.2231 8.39487 18.9652 8.65273C18.7074 8.91059 18.5625 9.26033 18.5625 9.625V12.375C18.5625 12.7397 18.7075 13.0893 18.9654 13.3471ZM23.848 13.1127L31.152 19.1991M36.2237 19.1991L43.5277 13.1127M10.3125 46.75C10.6772 46.75 11.0269 46.6051 11.2848 46.3473C11.5426 46.0894 11.6875 45.7397 11.6875 45.375V38.5C11.6875 38.1353 11.5426 37.7856 11.2848 37.5277C11.0269 37.2699 10.6772 37.125 10.3125 37.125H7.5625C7.19783 37.125 6.84809 37.2699 6.59023 37.5277C6.33237 37.7856 6.1875 38.1353 6.1875 38.5V45.375C6.1875 45.7397 6.33237 46.0894 6.59023 46.3473C6.84809 46.6051 7.19783 46.75 7.5625 46.75H10.3125ZM22.6875 46.75C23.0522 46.75 23.4019 46.6051 23.6598 46.3473C23.9176 46.0894 24.0625 45.7397 24.0625 45.375V26.125C24.0625 25.7603 23.9176 25.4106 23.6598 25.1527C23.4019 24.8949 23.0522 24.75 22.6875 24.75H19.9375C19.5728 24.75 19.2231 24.8949 18.9652 25.1527C18.7074 25.4106 18.5625 25.7603 18.5625 26.125V45.375C18.5625 45.7397 18.7074 46.0894 18.9652 46.3473C19.2231 46.6051 19.5728 46.75 19.9375 46.75H22.6875ZM35.0625 34.375C35.4272 34.375 35.7769 34.5199 36.0348 34.7777C36.2926 35.0356 36.4375 35.3853 36.4375 35.75V45.375C36.4375 45.7397 36.2926 46.0894 36.0348 46.3473C35.7769 46.6051 35.4272 46.75 35.0625 46.75H32.3125C31.9478 46.75 31.5981 46.6051 31.3402 46.3473C31.0824 46.0894 30.9375 45.7397 30.9375 45.375V35.75C30.9375 35.3853 31.0824 35.0356 31.3402 34.7777C31.5981 34.5199 31.9478 34.375 32.3125 34.375H35.0625ZM30.9375 19.9375C30.9375 19.5728 31.0824 19.2231 31.3402 18.9652C31.5981 18.7074 31.9478 18.5625 32.3125 18.5625H35.0625C35.4272 18.5625 35.7769 18.7074 36.0348 18.9652C36.2926 19.2231 36.4375 19.5728 36.4375 19.9375V22.6875C36.4375 23.0522 36.2926 23.4019 36.0348 23.6598C35.7769 23.9176 35.4272 24.0625 35.0625 24.0625H32.3125C31.9478 24.0625 31.5981 23.9176 31.3402 23.6598C31.0824 23.4019 30.9375 23.0522 30.9375 22.6875V19.9375ZM47.4375 46.75C47.8022 46.75 48.1519 46.6051 48.4098 46.3473C48.6676 46.0894 48.8125 45.7397 48.8125 45.375V26.125C48.8125 25.7603 48.6676 25.4106 48.4098 25.1527C48.1519 24.8949 47.8022 24.75 47.4375 24.75H44.6875C44.3228 24.75 43.9731 24.8949 43.7152 25.1527C43.4574 25.4106 43.3125 25.7603 43.3125 26.125V45.375C43.3125 45.7397 43.4574 46.0894 43.7152 46.3473C43.9731 46.6051 44.3228 46.75 44.6875 46.75H47.4375ZM43.3125 9.625C43.3125 9.26033 43.4574 8.91059 43.7152 8.65273C43.9731 8.39487 44.3228 8.25 44.6875 8.25H47.4375C47.8022 8.25 48.1519 8.39487 48.4098 8.65273C48.6676 8.91059 48.8125 9.26033 48.8125 9.625V12.375C48.8125 12.7397 48.6676 13.0894 48.4098 13.3473C48.1519 13.6051 47.8022 13.75 47.4375 13.75H44.6875C44.3228 13.75 43.9731 13.6051 43.7152 13.3473C43.4574 13.0894 43.3125 12.7397 43.3125 12.375V9.625Z" stroke="#10497D" stroke-width="2" stroke-linecap="round" stroke-linejoin="round"/>
</svg>
