<svg width="55" height="55" viewBox="0 0 55 55" fill="none" xmlns="http://www.w3.org/2000/svg">
<path d="M52 42.4074V12.5926C52 11.905 51.7353 11.2456 51.264 10.7594C50.7928 10.2731 50.1536 10 49.4872 10H5.51282C4.84638 10 4.20723 10.2731 3.73599 10.7594C3.26474 11.2456 3 11.905 3 12.5926V42.4074C3 43.095 3.26474 43.7544 3.73599 44.2406C4.20723 44.7269 4.84638 45 5.51282 45H49.4872C50.1536 45 50.7928 44.7269 51.264 44.2406C51.7353 43.7544 52 43.095 52 42.4074Z" stroke-width="2" stroke-linecap="round" stroke-linejoin="round" stroke="#10497D"/>
<path d="M52 16L27.5 28L3 16" stroke-width="2" stroke-linecap="round" stroke-linejoin="round" stroke="#10497D"/>
</svg>
