<svg width="55" height="55" viewBox="0 0 55 55" fill="none" xmlns="http://www.w3.org/2000/svg">
<path d="M4.5835 22.9193C4.5835 14.2774 4.5835 9.95531 7.26933 7.27177C9.95516 4.58823 14.275 4.58594 22.9168 4.58594H32.0835C40.7254 4.58594 45.0474 4.58594 47.731 7.27177C50.4145 9.9576 50.4168 14.2774 50.4168 22.9193V25.2109C50.4168 31.6918 50.4168 34.9345 48.4025 36.9466C46.3904 38.9609 43.1477 38.9609 36.6668 38.9609H18.3335C11.8527 38.9609 8.60995 38.9609 6.59787 36.9466C4.5835 34.9345 4.5835 31.6918 4.5835 25.2109V22.9193Z" stroke="#10497D" stroke-width="2"/>
<path d="M36.6668 50.4219H18.3335M27.5002 38.9635V50.4219M50.4168 29.7969H4.5835" stroke="#10497D" stroke-width="2" stroke-linecap="round"/>
</svg>
